/* XPM */
static char *_f35a1a114e54ce2f3cc61dbe7f17b04[] = {
/* columns rows colors chars-per-pixel */
"32 32 39 1 ",
"  c #6EA95C",
". c #A5B93A",
"X c #FFD500",
"o c #FFD600",
"O c gold",
"+ c #FFD800",
"@ c #FFD900",
"# c #FFDA00",
"$ c #FFDD00",
"% c #FDDF01",
"& c #FFDE00",
"* c #FFDF00",
"= c #E6CF11",
"- c #FFE100",
"; c #FFE400",
": c #FFE800",
"> c #FFEB00",
", c #007FAF",
"< c #007EB1",
"1 c #007BB7",
"2 c #007CB4",
"3 c #007CB6",
"4 c #0079BA",
"5 c #0079BB",
"6 c #0074C4",
"7 c #0E899B",
"8 c #0F899B",
"9 c #0D889C",
"0 c #128B97",
"q c #158B96",
"w c #148A97",
"e c #148B97",
"r c #158B97",
"t c #168B96",
"y c #118999",
"u c #138A98",
"i c #0584A4",
"p c #0180AE",
"a c None",
/* pixels */
"aaaaaaaaaaaaaaaaaaaaaaaaaaaaaaaa",
"aaaaaaaaaaaaaaaaaaaaaaaaaaaaaaaa",
"aaaaaaaaaaaaaaaaaaaaaa+aaaaaaaaa",
"aaaaaaaaaaaaaaaaaaaa++X+aaaaaaaa",
"aaaaaaaaaaaaaaaaaaaX+++XXaaaaaaa",
"aaaaaaaaauuaaaaaaa+++X+X+aaaaaaa",
"aaaaaaaauuuuaaaaa+XX++X+aaaaaaaa",
"aaaaaaaauuuuuaaa++++X++aaaaaaaaa",
"aaaaaaaauuuur3aa+++X++aa+Xaaaaaa",
"aaaaaaaaauuu9<.-+X++XaaX++aaaaaa",
"aaaaaaaaaauup :++XX+aa++Xaaaaaaa",
"aaaaaaauuaau3a:X++++aaX++aaaaaaa",
"aaaaaaaauuaapaa&X+X+Xaa++Xaaaaaa",
"aaaaaaaauuuau1a:&XX+++aa++aaaaaa",
"aaaaaaaauuuae71a:&X++X+aaaaaaaaa",
"aaaaaaauuuaauq95a-+++X+Xaaaaaaaa",
"aaaaaaauuaauuur96a;+X+++Xaaaaaaa",
"aaaaaaaaaauuuurraaa+++X++aaaaaaa",
"aaaaaaaauuuuuuuaaaaa+X+++aaaaaaa",
"aaaaaaaauuuuuuaaaaaaa+XXaaaaaaaa",
"aaaaaaaauuuuuaaaaaaaaaaaaaaaaaaa",
"aaaaaaaauuuuaaaaaaaaaaaaaaaaaaaa",
"aaaaaaaaaeuaaaaaaaaaaaaaaaaaaaaa",
"aaaaaaaaaaaaaaaaaaaaaaaaaaaaaaaa",
"aaaaaaaaaaaaaaaaaaaaaaaaaaaaaaaa",
"aaaaaaaaaaaaaaaaaaaaaaaaaaaaaaaa",
"a+aaaaaaaaaaaaaaaaaaaaaaaaaaaaaa",
"X+aa++aX+Xa++XaaX&aaiaaaaaaaauaa",
"X+aXXa+Xa+a++X+a+;aaaaaaaauaaaau",
"a+a++a+++XaXaa+a+&=aaaaaaaaaaaaa",
"a++aaaaX+aaaaaaaX&aaaaaaaaaaaaaa",
"aaaaaaaaaaaaaaaaaaaaaaaaaaaaaaaa"
};
