/* XPM */
static char *_c78b8fee16d4135c4b059f498832734[] = {
/* columns rows colors chars-per-pixel */
"48 48 46 1 ",
"  c #5BA268",
". c #B1BD31",
"X c #CEC91F",
"o c #FFD600",
"O c gold",
"+ c #FFD800",
"@ c #FFD900",
"# c #FDE001",
"$ c #FFE100",
"% c #FFE200",
"& c #FFE300",
"* c #FFE400",
"= c #FFE500",
"- c #FFE600",
"; c #FFE800",
": c #FFE900",
"> c #FFEB00",
", c #FFEC00",
"< c #007DB1",
"1 c #007EB1",
"2 c #007DB3",
"3 c #007CB4",
"4 c #007CB5",
"5 c #08869F",
"6 c #0A879E",
"7 c #0D889C",
"8 c #138B97",
"9 c #148B97",
"0 c #168B96",
"q c #168C94",
"w c #168C95",
"e c #138A98",
"r c #128A99",
"t c #148A98",
"y c #0082A7",
"u c #0383A6",
"i c #0A86A1",
"p c #0885A3",
"a c #0081A9",
"s c #0081AA",
"d c #0181AA",
"f c #0080AB",
"g c #0081AB",
"h c #0080AC",
"j c #0080AD",
"k c None",
/* pixels */
"kkkkkkkkkkkkkkkkkkkkkkkkkkkkkkkkkkkkkkkkkkkkkkkk",
"kkkkkkkkkkkkkkkkkkkkkkkkkkkkkkkkkkkkkkkkkkkkkkkk",
"kkkkkkkkkkkkkkkkkkkkkkkkkkkkkkkkkkkkkkkkkkkkkkkk",
"kkkkkkkkkkkkkkkkkkkkkkkkkkkkkkkkkOOkkkkkkkkkkkkk",
"kkkkkkkkkkkkkkkkkkkkkkkkkkkkkkkOOOOOkkkkkkkkkkkk",
"kkkkkkkkkkkkkkkkkkkkkkkkkkkkkkOOOOOOOkkkkkkkkkkk",
"kkkkkkkkkkkkkkkkkkkkkkkkkkkkkOOOOOOOOkkkkkkkkkkk",
"kkkkkkkkkkkkkkkkkkkkkkkkkkkkOOOOOOOOOkkkkkkkkkkk",
"kkkkkkkkkkkkkeeeekkkkkkkkkkOOOOOOOOOOkkkkkkkkkkk",
"kkkkkkkkkkkkeeeeeekkkkkkkkOOOOOOOOOOkkkkkkkkkkkk",
"kkkkkkkkkkkkeeeeeeekkkkkkOOOOOOOOOOkkkkkkkkkkkkk",
"kkkkkkkkkkkkeeeeeeeekkkkOOOOOOOOOOkkkkkkkkkkkkkk",
"kkkkkkkkkkkkeeeeeeee8kk*OOOOOOOOOkkkkOOOkkkkkkkk",
"kkkkkkkkkkkkkeeeeeewufX$OOOOOOOOkkkkOOOkkkkkkkkk",
"kkkkkkkkkkkkkkeeeee71.*OOOOOOOOkkkkOOOOkkkkkkkkk",
"kkkkkkkkkkkkkkkeee92 ;@OOOOOOOOkkkOOOOkkkkkkkkkk",
"kkkkkkkkkkeeekkkee6pk*OOOOOOOOkkkOOOOkkkkkkkkkkk",
"kkkkkkkkkkeeeekkkeikk$OOOOOOOOOkkkOOOkkkkkkkkkkk",
"kkkkkkkkkkkeeeekkk82k,OOOOOOOOOkkkkOOOkkkkkkkkkk",
"kkkkkkkkkkkkeeeekktikk;@OOOOOOOOkkkkOOOkkkkkkkkk",
"kkkkkkkkkkkkkeeekkkwfkk;OOOOOOOOOkkkkOOOkkkkkkkk",
"kkkkkkkkkkkkkeeekkeeqfkk;OOOOOOOOOkkkkkkkkkkkkkk",
"kkkkkkkkkkkkeeekkkee8wfkk;@OOOOOOOOkkkkkkkkkkkkk",
"kkkkkkkkkkkeeekkkeeeeewfkk$OOOOOOOOOkkkkkkkkkkkk",
"kkkkkkkkkkeeekkkeeeeeeewykk*@OOOOOOOOkkkkkkkkkkk",
"kkkkkkkkkkkekkkeeeeeeeeewkkkOOOOOOOOOkkkkkkkkkkk",
"kkkkkkkkkkkkkkeeeeeeeeeekkkkkOOOOOOOOkkkkkkkkkkk",
"kkkkkkkkkkkkkeeeeeeeeeekkkkkkkOOOOOOOkkkkkkkkkkk",
"kkkkkkkkkkkkeeeeeeeeeekkkkkkkkkOOOOOkkkkkkkkkkkk",
"kkkkkkkkkkkkeeeeeeeeekkkkkkkkkkkkOOkkkkkkkkkkkkk",
"kkkkkkkkkkkkeeeeeeeekkkkkkkkkkkkkkkkkkkkkkkkkkkk",
"kkkkkkkkkkkkeeeeeeekkkkkkkkkkkkkkkkkkkkkkkkkkkkk",
"kkkkkkkkkkkkeeeeeekkkkkkkkkkkkkkkkkkkkkkkkkkkkkk",
"kkkkkkkkkkkkkkeekkkkkkkkkkkkkkkkkkkkkkkkkkkkkkkk",
"kkkkkkkkkkkkkkkkkkkkkkkkkkkkkkkkkkkkkkkkkkkkkkkk",
"kkkkkkkkkkkkkkkkkkkkkkkkkkkkkkkkkkkkkkkkkkkkkkkk",
"kkkkkkkkkkkkkkkkkkkkkkkkkkkkkkkkkkkkkkkkkkkkkkkk",
"kkkkkkkkkkkkkkkkkkkkkkkkkkkkkkkkkkkkkkkkkkkkkkkk",
"kkkkkkkkkkkkkkkkkkkkkkkkkkkkkkkkkkkkkkkkkkkkkkkk",
"kOOkkkkkkkkkkkkkkkkkkkkkkkkkkkkkkkkkkkkkkkkkkkkk",
"kOOkkkkkkkkkkkkkkkkkkkkkkkkkkkkekkkkeekkkkkkkekk",
"OOOOkOOOOkOOOOOOkOOOOOkkOO@$kjekekkekeekkekeekee",
"kOOkkOOkkkOOkOOOkOOkOOkOOOkkkfkkkkekkkekkekekkke",
"kOOkkOOkkkOOkkOOkOOkOOkkOO@$k1kkkkekkkkekekekkke",
"kOOOkOOkkkOOOOOOkOOkOOkkOO@$k2kkkkeekkekkekekkke",
"kkOOkOOkkkkOOOOkkOOkOOkkOO@kkkeeekkeeekkkkkekkke",
"kkkkkkkkkkkkkkkkkkkkkkkkkkkkkkkkkkkkkkkkkkkkkkkk",
"kkkkkkkkkkkkkkkkkkkkkkkkkkkkkkkkkkkkkkkkkkkkkkkk"
};
