/* XPM */
static char *_5c3c51a335e4b909ef26eb48a8a1ed3[] = {
/* columns rows colors chars-per-pixel */
"16 16 29 1 ",
"  c #73AA5A",
". c #5BA366",
"X c #BCC12B",
"o c #CFCC1F",
"O c #DED013",
"+ c #FFD600",
"@ c gold",
"# c #FFD800",
"$ c #FFDA00",
"% c #FFDB00",
"& c #FFDF00",
"* c #FFE200",
"= c #FFE300",
"- c #FFE500",
"; c #FFE700",
": c #FFE900",
"> c #007DB3",
", c #0078BD",
"< c #0C889C",
"1 c #138A97",
"2 c #148A97",
"3 c #148B97",
"4 c #168C94",
"5 c #14879C",
"6 c #128A98",
"7 c #138A98",
"8 c #0783A7",
"9 c #0080AD",
"0 c None",
/* pixels */
"0000000000000000",
"0000000000@@0000",
"000000000@@@0000",
"00007200-@@00000",
"00007<8X*@@0@000",
"00070>.:@@0@@000",
"0000700O-@@0@000",
"00007095o*@@0000",
"0000074,00$@0000",
"0000774000$@0000",
"0000770000000000",
"0000000000000000",
"0000000000000000",
"@00000$000000000",
"@@@@@@@$* 000000",
"0000000000000000"
};
