<?xml version="1.0" encoding="utf-8"?>
<!-- Generator: Adobe Illustrator 19.0.0, SVG Export Plug-In . SVG Version: 6.00 Build 0)  -->
<svg version="1.1"
	 id="svg2" xmlns:rdf="http://www.w3.org/1999/02/22-rdf-syntax-ns#" xmlns:inkscape="http://www.inkscape.org/namespaces/inkscape" xmlns:cc="http://creativecommons.org/ns#" xmlns:dc="http://purl.org/dc/elements/1.1/" xmlns:sodipodi="http://sodipodi.sourceforge.net/DTD/sodipodi-0.dtd" xmlns:svg="http://www.w3.org/2000/svg" sodipodi:docname="bitcoin-logo-noshadow.svg" inkscape:version="0.48.2 r9819"
	 xmlns="http://www.w3.org/2000/svg" xmlns:xlink="http://www.w3.org/1999/xlink" x="0px" y="0px" viewBox="206 -116 1024 1024"
	 style="enable-background:new 206 -116 1024 1024;" xml:space="preserve">
<style type="text/css">
	.st0{display:none;}
	.st1{display:inline;fill:#FFFFFF;}
	.st2{display:inline;}
	.st3{fill:url(#SVGID_1_);}
	.st4{fill:url(#SVGID_2_);}
	.st5{display:inline;fill:url(#SVGID_3_);}
	.st6{fill:#FFD700;}
	.st7{fill:#138A98;}
</style>
<g class="st0">
	<circle class="st1" cx="1918.2" cy="-335.8" r="353.1"/>
	<g class="st2">
		
			<radialGradient id="SVGID_1_" cx="2344.6758" cy="1055.4846" r="34.4319" gradientTransform="matrix(1.7655 0 0 -1.7655 -2181.6814 1424.3173)" gradientUnits="userSpaceOnUse">
			<stop  offset="0" style="stop-color:#F9AA4B"/>
			<stop  offset="1" style="stop-color:#F7931A"/>
		</radialGradient>
		<path class="st3" d="M1917.6-477.7l-24.7,99c28,7,114.3,35.4,128.3-20.6C2035.8-457.7,1945.6-470.7,1917.6-477.7z"/>
	</g>
	<g class="st2">
		
			<radialGradient id="SVGID_2_" cx="2329.134" cy="967.3586" r="39.858" gradientTransform="matrix(1.7655 0 0 -1.7655 -2181.6814 1424.3173)" gradientUnits="userSpaceOnUse">
			<stop  offset="0" style="stop-color:#F9AA4B"/>
			<stop  offset="1" style="stop-color:#F7931A"/>
		</radialGradient>
		<path class="st4" d="M1880.5-328.7l-27.2,109.2c33.6,8.3,137.3,41.6,152.6-19.9C2021.9-303.7,1914.1-320.3,1880.5-328.7z"/>
	</g>
	
		<radialGradient id="SVGID_3_" cx="2323.1855" cy="995.9598" r="255.9973" gradientTransform="matrix(1.7655 0 0 -1.7655 -2181.6814 1424.3173)" gradientUnits="userSpaceOnUse">
		<stop  offset="0" style="stop-color:#F9AA4B"/>
		<stop  offset="1" style="stop-color:#F7931A"/>
	</radialGradient>
	<path class="st5" d="M2029.2-772.5c-242.1-60.4-487.3,87-547.7,329.2c-60.4,242.1,87,487.4,329,547.7
		c242.2,60.4,487.4-87,547.8-329.1S2271.4-712.1,2029.2-772.5z M2119.2-398.4c-6.5,44-30.9,65.3-63.3,72.8
		c44.5,23.2,67.1,58.7,45.6,120.3c-26.8,76.5-90.4,82.9-174.9,66.9L1906-56.1l-49.6-12.4l20.3-81.1c-12.9-3.2-26-6.6-39.5-10.3
		l-20.3,81.5l-49.5-12.4l20.5-82.4c-11.6-3-23.3-6.1-35.4-9.1l-64.5-16.1l24.6-56.8c0,0,36.5,9.7,36,9c14,3.5,20.3-5.7,22.7-11.8
		l32.4-130l0.1-0.4l23.1-92.8c0.6-10.5-3-23.8-23.1-28.8c0.8-0.5-36-9-36-9l13.2-53l68.4,17.1l-0.1,0.3c10.3,2.6,20.9,5,31.7,7.4
		l20.3-81.4l49.6,12.4l-19.9,79.9c13.3,3,26.7,6.1,39.7,9.4l19.8-79.3l49.6,12.4l-20.3,81.5C2082.4-490.9,2128.2-458.5,2119.2-398.4
		z"/>
</g>
<path class="st6" d="M462.2,534.9l1.8,8.7c4.2-7.4,11.6-10.7,19.4-10.7c8.1,0,15.8,3.1,21,8.6l-12,21.5c-4.8-3.9-8.4-4.8-13.4-4.8
	c-7.4,0-13.7,4.5-13.7,15v41.5h-29.7v-79.8H462.2z"/>
<path class="st6" d="M402.4,512.3v23.1h17.9v22.8h-18.1v26.2c0.2,5.7,3.4,7.8,7.9,7.8c2.9,0,6.3-1.1,8.7-2.7l6.5,22
	c-6.8,3.9-14.7,5.3-22.9,5.3c-15.8,0-30.1-7.3-29.6-32.3v-26.2H360v-22.8h12.8v-19.9L402.4,512.3z"/>
<path class="st6" d="M569,534.9h28v79.8h-27.5l-1.3-8.6c-6.8,7.8-17.5,10.5-26.3,10c-23.4-1.5-36.5-18.1-36.5-41.4
	c0-23.6,15.5-41.7,38.8-41.7c11.3,0,19.2,3.9,23.4,10.3L569,534.9z M534.9,574.8c0,11.2,7.1,17.5,16,17.5c10,0,16.5-8.1,16.5-17.5
	c0-10.7-6-17.6-16.5-17.6C542,557.2,534.9,563.7,534.9,574.8"/>
<path class="st6" d="M668.7,614.7v-44.1c0-9.9-5.7-13.3-11.2-13.3c-7.1,0-13.7,4.8-13.7,15.4v42h-29.4v-79.8h26.3l1.3,8.7
	c6.8-7.9,16.8-10.8,25.2-10.7c16.8,0.2,31.2,9,31.2,37.5v44.3H668.7z"/>
<path class="st6" d="M718.9,584.7c12.1,7.9,21.8,8.6,28.3,8.9c5.3,0,8.1-1.3,8.1-3.9s-2.6-3.9-8.4-4.4c-15.5-0.5-34.3-6.8-34.3-26.2
	c0-19.2,18.1-26.2,36.8-26.2c12.9,0,24.9,3.9,32.6,9.7l-12.6,17.8c-4.4-2.7-13.6-5-20-4.8c-4.2,0-7.1,1-7.1,3.9c0,1.5,1.1,3.7,6,3.9
	c16.6,0.5,36.7,5.2,36.7,26.3c0,19.7-17.9,27.1-37.2,27.1c-13.9,0-29.6-3.9-38.6-10.5L718.9,584.7z"/>
<path class="st7" d="M867.1,603.9c-8.4,8.2-18.7,12.1-29.6,12.1c-22.6,0-41.4-15.2-41.4-41.2c0-25.9,18.3-41,41.4-41
	c10.7,0,20,3.7,28.3,11.8l-7.1,6.9c-6-5.8-13.3-8.6-21-8.6c-17,0-30.7,11.3-30.7,30.9c0,20,13.9,30.9,30.5,30.9
	c8.1,0,16.2-3.1,22.1-9L867.1,603.9z"/>
<path class="st7" d="M959.7,575c0,24.7-17.5,41-41,41c-23.3,0-41-16.3-41-41c0-24.7,17.1-41.5,41-41.5
	C942,533.4,959.7,550.2,959.7,575 M888.5,575c0,18.6,12.6,30.9,30.2,30.9c17.9,0,30.2-12.3,30.2-30.9c0-18.4-12.4-31.7-30.2-31.7
	C900.9,543.3,888.5,556.5,888.5,575"/>
<path class="st7" d="M993,509.8c0,10.2-15.4,10.2-15.4,0S993,499.7,993,509.8 M979.8,614.7h10.8v-80.2h-10.8V614.7z"/>
<path class="st7" d="M1078.8,614.7V570c0-17.1-10-26.2-26-26.2c-15.5,0.2-26.2,12.1-26.2,27.5v43.5h-10.8v-79.8h10.3l0.3,13.4
	c6.6-10.2,17-14.7,27.8-14.7c20.7,0,35.6,12.3,35.6,36.2v44.9H1078.8z"/>
<path class="st7" d="M551.9,232.6c8.1-8.1,8.1-21.3,0-29.4l-58.8-58.8c-8.1-8.1-21.3-8.1-29.4,0c-8.1,8.1-8.1,21.3,0,29.4l29.4,29.4
	c8.1,8.1,8.1,21.3,0,29.4L463.7,262c-8.1,8.1-8.1,21.3,0,29.4c8.1,8.1,21.3,8.1,29.4,0L551.9,232.6z"/>
<path class="st7" d="M623.9,206c-21.4-21.4-21.4-56,0-77.4l26.5-26.5l-77.7-77.7c-21.4-21.4-56-21.4-77.4,0
	c-21.4,21.4-21.4,56,0,77.4l77.4,77.4c21.4,21.4,21.4,56,0,77.4L495.4,334c-21.4,21.4-21.4,56,0,77.4c21.4,21.4,56,21.4,77.4,0
	l132.1-132.1l-3.9,3.9L623.9,206z"/>
<path class="st6" d="M890.9,165.2c-8.1-8.1-8.1-21.3,0-29.4l29.4-29.4c8.1-8.1,8.1-21.3,0-29.4c-8.1-8.1-21.3-8.1-29.4,0l-58.8,58.8
	c-8.1,8.1-8.1,21.3,0,29.4l58.8,58.8c8.1,8.1,21.3,8.1,29.4,0c8.1-8.1,8.1-21.3,0-29.4L890.9,165.2z"/>
<path class="st6" d="M795.5,189.1c-21.4-21.4-21.4-56,0-77.4l77.4-77.4c21.4-21.4,21.4-56,0-77.4c-21.4-21.4-56-21.4-77.4,0
	L650.4,102.1l-9.6,9.6c-21.4,21.4-21.4,56,0,77.4l77.1,77.1l77.7,77.7c21.4,21.4,56,21.4,77.4,0c21.4-21.4,21.4-56,0-77.4
	L795.5,189.1z"/>
</svg>
